<svg width="125" height="18" viewBox="0 0 125 18" fill="none" xmlns="http://www.w3.org/2000/svg">
<path d="M26.35 14L29.374 4.2H31.446L34.47 14H33.252L32.496 11.522H28.324L27.568 14H26.35ZM28.618 10.458H32.188L30.508 4.914H30.312L28.618 10.458ZM39.1304 14.196C38.4677 14.196 37.8704 14.056 37.3384 13.776C36.8157 13.4867 36.4004 13.076 36.0924 12.544C35.7937 12.012 35.6444 11.382 35.6444 10.654V10.5C35.6444 9.76267 35.7937 9.13267 36.0924 8.61C36.4004 8.078 36.8157 7.672 37.3384 7.392C37.8704 7.10267 38.4677 6.958 39.1304 6.958C39.7837 6.958 40.339 7.07933 40.7964 7.322C41.263 7.56467 41.627 7.88667 41.8884 8.288C42.159 8.68933 42.3317 9.11867 42.4064 9.576L41.3284 9.8C41.2817 9.464 41.1697 9.156 40.9924 8.876C40.8244 8.596 40.5864 8.372 40.2784 8.204C39.9704 8.036 39.5924 7.952 39.1444 7.952C38.687 7.952 38.2764 8.05467 37.9124 8.26C37.5577 8.46533 37.273 8.75933 37.0584 9.142C36.853 9.52467 36.7504 9.982 36.7504 10.514V10.64C36.7504 11.172 36.853 11.6293 37.0584 12.012C37.273 12.3947 37.5577 12.6887 37.9124 12.894C38.2764 13.0993 38.687 13.202 39.1444 13.202C39.8257 13.202 40.3437 13.0247 40.6984 12.67C41.0624 12.3153 41.2864 11.8767 41.3704 11.354L42.4624 11.592C42.3597 12.04 42.173 12.4647 41.9024 12.866C41.6317 13.2673 41.263 13.5893 40.7964 13.832C40.339 14.0747 39.7837 14.196 39.1304 14.196ZM47.4975 14.196C46.8349 14.196 46.2375 14.056 45.7055 13.776C45.1829 13.4867 44.7675 13.076 44.4595 12.544C44.1609 12.012 44.0115 11.382 44.0115 10.654V10.5C44.0115 9.76267 44.1609 9.13267 44.4595 8.61C44.7675 8.078 45.1829 7.672 45.7055 7.392C46.2375 7.10267 46.8349 6.958 47.4975 6.958C48.1509 6.958 48.7062 7.07933 49.1635 7.322C49.6302 7.56467 49.9942 7.88667 50.2555 8.288C50.5262 8.68933 50.6989 9.11867 50.7735 9.576L49.6955 9.8C49.6489 9.464 49.5369 9.156 49.3595 8.876C49.1915 8.596 48.9535 8.372 48.6455 8.204C48.3375 8.036 47.9595 7.952 47.5115 7.952C47.0542 7.952 46.6435 8.05467 46.2795 8.26C45.9249 8.46533 45.6402 8.75933 45.4255 9.142C45.2202 9.52467 45.1175 9.982 45.1175 10.514V10.64C45.1175 11.172 45.2202 11.6293 45.4255 12.012C45.6402 12.3947 45.9249 12.6887 46.2795 12.894C46.6435 13.0993 47.0542 13.202 47.5115 13.202C48.1929 13.202 48.7109 13.0247 49.0655 12.67C49.4295 12.3153 49.6535 11.8767 49.7375 11.354L50.8295 11.592C50.7269 12.04 50.5402 12.4647 50.2695 12.866C49.9989 13.2673 49.6302 13.5893 49.1635 13.832C48.7062 14.0747 48.1509 14.196 47.4975 14.196ZM55.8787 14.196C55.1881 14.196 54.5767 14.0513 54.0447 13.762C53.5221 13.4727 53.1114 13.0667 52.8127 12.544C52.5234 12.012 52.3787 11.3867 52.3787 10.668V10.486C52.3787 9.77667 52.5234 9.156 52.8127 8.624C53.1114 8.092 53.5221 7.68133 54.0447 7.392C54.5767 7.10267 55.1881 6.958 55.8787 6.958C56.5694 6.958 57.1761 7.10267 57.6987 7.392C58.2307 7.68133 58.6414 8.092 58.9307 8.624C59.2294 9.156 59.3787 9.77667 59.3787 10.486V10.668C59.3787 11.3867 59.2294 12.012 58.9307 12.544C58.6414 13.0667 58.2307 13.4727 57.6987 13.762C57.1761 14.0513 56.5694 14.196 55.8787 14.196ZM55.8787 13.202C56.6067 13.202 57.1854 12.9733 57.6147 12.516C58.0534 12.0493 58.2727 11.424 58.2727 10.64V10.514C58.2727 9.73 58.0534 9.10933 57.6147 8.652C57.1854 8.18533 56.6067 7.952 55.8787 7.952C55.1601 7.952 54.5814 8.18533 54.1427 8.652C53.7041 9.10933 53.4847 9.73 53.4847 10.514V10.64C53.4847 11.424 53.7041 12.0493 54.1427 12.516C54.5814 12.9733 55.1601 13.202 55.8787 13.202ZM63.987 14.126C63.4924 14.126 63.035 14.0187 62.615 13.804C62.2044 13.5893 61.8777 13.272 61.635 12.852C61.4017 12.4227 61.285 11.9047 61.285 11.298V7.154H62.391V11.214C62.391 11.8953 62.559 12.39 62.895 12.698C63.2404 13.006 63.7024 13.16 64.281 13.16C64.9344 13.16 65.471 12.9453 65.891 12.516C66.311 12.0867 66.521 11.4473 66.521 10.598V7.154H67.627V14H66.549V12.838H66.353C66.2037 13.1647 65.947 13.4633 65.583 13.734C65.219 13.9953 64.687 14.126 63.987 14.126ZM69.9413 14V7.154H71.0193V8.316H71.2153C71.3646 7.98933 71.6166 7.69533 71.9713 7.434C72.3353 7.16333 72.8673 7.028 73.5673 7.028C74.0806 7.028 74.538 7.13533 74.9393 7.35C75.35 7.56467 75.6766 7.882 75.9193 8.302C76.162 8.722 76.2833 9.24 76.2833 9.856V14H75.1773V9.94C75.1773 9.25867 75.0046 8.764 74.6593 8.456C74.3233 8.148 73.866 7.994 73.2873 7.994C72.6246 7.994 72.0833 8.20867 71.6633 8.638C71.2526 9.06733 71.0473 9.70667 71.0473 10.556V14H69.9413ZM80.8558 14C80.4638 14 80.1605 13.8927 79.9458 13.678C79.7405 13.4633 79.6378 13.1693 79.6378 12.796V8.12H77.5798V7.154H79.6378V4.718H80.7438V7.154H82.9838V8.12H80.7438V12.628C80.7438 12.908 80.8792 13.048 81.1498 13.048H82.6758V14H80.8558ZM88.371 14V7.154H89.449V8.008H89.645C89.7757 7.76533 89.9903 7.54133 90.289 7.336C90.5877 7.13067 91.0077 7.028 91.549 7.028C92.081 7.028 92.5103 7.14467 92.837 7.378C93.173 7.61133 93.4157 7.896 93.565 8.232H93.761C93.9197 7.896 94.1577 7.61133 94.475 7.378C94.8017 7.14467 95.2543 7.028 95.833 7.028C96.2903 7.028 96.6917 7.12133 97.037 7.308C97.3823 7.49467 97.653 7.76533 97.849 8.12C98.0543 8.46533 98.157 8.88067 98.157 9.366V14H97.051V9.464C97.051 9.00667 96.9157 8.64733 96.645 8.386C96.3837 8.11533 96.015 7.98 95.539 7.98C95.035 7.98 94.6197 8.14333 94.293 8.47C93.9757 8.79667 93.817 9.268 93.817 9.884V14H92.711V9.464C92.711 9.00667 92.5757 8.64733 92.305 8.386C92.0437 8.11533 91.675 7.98 91.199 7.98C90.695 7.98 90.2797 8.14333 89.953 8.47C89.6357 8.79667 89.477 9.268 89.477 9.884V14H88.371ZM103.552 14.196C102.861 14.196 102.255 14.0513 101.732 13.762C101.209 13.4633 100.803 13.048 100.514 12.516C100.225 11.984 100.08 11.368 100.08 10.668V10.5C100.08 9.79067 100.225 9.17 100.514 8.638C100.803 8.106 101.205 7.69533 101.718 7.406C102.231 7.10733 102.819 6.958 103.482 6.958C104.126 6.958 104.695 7.098 105.19 7.378C105.685 7.64867 106.072 8.04067 106.352 8.554C106.632 9.06733 106.772 9.66933 106.772 10.36V10.864H101.186C101.214 11.6013 101.452 12.18 101.9 12.6C102.348 13.0107 102.908 13.216 103.58 13.216C104.168 13.216 104.621 13.0807 104.938 12.81C105.255 12.5393 105.498 12.2173 105.666 11.844L106.618 12.306C106.478 12.5953 106.282 12.8847 106.03 13.174C105.787 13.4633 105.465 13.706 105.064 13.902C104.672 14.098 104.168 14.196 103.552 14.196ZM101.2 9.954H105.652C105.615 9.31933 105.395 8.82467 104.994 8.47C104.602 8.11533 104.098 7.938 103.482 7.938C102.857 7.938 102.343 8.11533 101.942 8.47C101.541 8.82467 101.293 9.31933 101.2 9.954ZM108.701 14V7.154H109.779V8.316H109.975C110.124 7.98933 110.376 7.69533 110.731 7.434C111.095 7.16333 111.627 7.028 112.327 7.028C112.84 7.028 113.298 7.13533 113.699 7.35C114.11 7.56467 114.436 7.882 114.679 8.302C114.922 8.722 115.043 9.24 115.043 9.856V14H113.937V9.94C113.937 9.25867 113.764 8.764 113.419 8.456C113.083 8.148 112.626 7.994 112.047 7.994C111.384 7.994 110.843 8.20867 110.423 8.638C110.012 9.06733 109.807 9.70667 109.807 10.556V14H108.701ZM119.796 14.126C119.301 14.126 118.844 14.0187 118.424 13.804C118.013 13.5893 117.686 13.272 117.444 12.852C117.21 12.4227 117.094 11.9047 117.094 11.298V7.154H118.2V11.214C118.2 11.8953 118.368 12.39 118.704 12.698C119.049 13.006 119.511 13.16 120.09 13.16C120.743 13.16 121.28 12.9453 121.7 12.516C122.12 12.0867 122.33 11.4473 122.33 10.598V7.154H123.436V14H122.358V12.838H122.162C122.012 13.1647 121.756 13.4633 121.392 13.734C121.028 13.9953 120.496 14.126 119.796 14.126Z" fill="black"/>
<path fill-rule="evenodd" clip-rule="evenodd" d="M8.98857 11.5095C6.08786 11.5095 3.61072 11.9481 3.61072 13.7045C3.61072 15.461 6.07215 15.9152 8.98857 15.9152C11.8893 15.9152 14.3657 15.476 14.3657 13.7202C14.3657 11.9645 11.905 11.5095 8.98857 11.5095Z" stroke="#130F26" stroke-width="1.5" stroke-linecap="round" stroke-linejoin="round"/>
<path fill-rule="evenodd" clip-rule="evenodd" d="M8.98854 9.00441C10.8921 9.00441 12.435 7.46084 12.435 5.55727C12.435 3.6537 10.8921 2.11084 8.98854 2.11084C7.08497 2.11084 5.5414 3.6537 5.5414 5.55727C5.53497 7.45441 7.06783 8.99798 8.96426 9.00441H8.98854Z" stroke="#130F26" stroke-width="1.42857" stroke-linecap="round" stroke-linejoin="round"/>
</svg>
