<svg width="20" height="20" viewBox="0 0 20 20" fill="none" xmlns="http://www.w3.org/2000/svg">
<path d="M0.104812 19.7482C0.214109 19.9055 0.393757 20 0.586023 20H19.414C19.6063 20 19.7859 19.9055 19.8952 19.7482C20.0051 19.5903 20.0302 19.3889 19.9627 19.2086C19.7344 18.5981 19.3076 18.0625 19.1342 17.8611C19.0232 17.7312 18.8607 17.6562 18.6896 17.6562H1.31044C1.13934 17.6562 0.976843 17.7312 0.865828 17.8611C0.692468 18.0625 0.265593 18.5981 0.0372728 19.2086C-0.0302273 19.3889 -0.00507101 19.5903 0.104812 19.7482Z" fill="white"/>
<path d="M2.34375 9.41406H5.89845V16.4844H2.34375V9.41406Z" fill="white"/>
<path d="M8.24219 9.41406H11.7578V16.4844H8.24219V9.41406Z" fill="white"/>
<path d="M14.1016 9.41406H17.6563V16.4844H14.1016V9.41406Z" fill="white"/>
<path d="M1.26824 8.06965C1.37824 8.18008 1.53133 8.24219 1.68274 8.24219C1.68281 8.24219 1.68293 8.24211 1.68301 8.24211C1.68309 8.24211 1.6832 8.24219 1.68328 8.2418H18.3167C18.3168 8.24219 18.3169 8.24211 18.317 8.24211C18.3171 8.24211 18.3172 8.24219 18.3173 8.24219C18.4687 8.24219 18.6218 8.18012 18.7318 8.06965C18.851 7.95043 19.742 7.0225 20 5.89844H0C0.258008 7.0225 1.14899 7.95043 1.26824 8.06965Z" fill="white"/>
<path d="M19.6271 4.72656L10.2621 0.0617873C10.0973 -0.0205958 9.90275 -0.0205958 9.73795 0.0617873L0.372925 4.72656H19.6271Z" fill="white"/>
</svg>
