<svg width="53" height="52" viewBox="0 0 53 52" fill="none" xmlns="http://www.w3.org/2000/svg">
<rect x="0.199951" width="52" height="52" rx="14.8571" fill="#753918"/>
<path d="M16.1048 35.7482C16.2141 35.9055 16.3938 36 16.586 36H35.414C35.6063 36 35.7859 35.9055 35.8952 35.7482C36.0051 35.5903 36.0302 35.3889 35.9627 35.2086C35.7344 34.5981 35.3076 34.0625 35.1342 33.8611C35.0232 33.7312 34.8607 33.6562 34.6896 33.6562H17.3104C17.1393 33.6562 16.9768 33.7312 16.8658 33.8611C16.6925 34.0625 16.2656 34.5981 16.0373 35.2086C15.9698 35.3889 15.9949 35.5903 16.1048 35.7482V35.7482Z" fill="white"/>
<path d="M18.3438 25.4141H21.8984V32.4844H18.3438V25.4141Z" fill="white"/>
<path d="M24.2422 25.4141H27.7578V32.4844H24.2422V25.4141Z" fill="white"/>
<path d="M30.1016 25.4141H33.6563V32.4844H30.1016V25.4141Z" fill="white"/>
<path d="M17.2682 24.0696C17.3782 24.1801 17.5313 24.2422 17.6827 24.2422C17.6828 24.2422 17.6829 24.2421 17.683 24.2421C17.6831 24.2421 17.6832 24.2422 17.6833 24.2418H34.3167C34.3168 24.2422 34.3169 24.2421 34.317 24.2421C34.3171 24.2421 34.3172 24.2422 34.3173 24.2422C34.4687 24.2422 34.6218 24.1801 34.7318 24.0696C34.851 23.9504 35.742 23.0225 36 21.8984H16C16.258 23.0225 17.149 23.9504 17.2682 24.0696V24.0696Z" fill="white"/>
<path d="M35.6271 20.7266L26.2621 16.0618C26.0973 15.9794 25.9028 15.9794 25.7379 16.0618L16.3729 20.7266H35.6271Z" fill="white"/>
</svg>
