<svg width="53" height="52" viewBox="0 0 53 52" fill="none" xmlns="http://www.w3.org/2000/svg">
<rect x="0.600098" width="52" height="52" rx="14.8571" fill="#753918"/>
<path d="M23.3683 22.3155C27.5855 22.3155 30.7366 20.6484 30.7366 19.1577C30.7366 17.6672 27.5854 16 23.3683 16C19.1511 16 16 17.6672 16 19.1577C16 20.6484 19.1511 22.3155 23.3683 22.3155Z" fill="white"/>
<path d="M23.3683 34.947C23.9838 34.947 24.5762 34.9113 25.1398 34.8461C24.6647 34.2356 24.2719 33.5581 23.9776 32.8306C23.7754 32.8374 23.5725 32.8421 23.3682 32.8421C20.9585 32.8421 18.6765 32.3646 16.9427 31.4977C16.6013 31.327 16.2871 31.1436 16 30.9495V31.7893C16 33.2798 19.1511 34.947 23.3683 34.947Z" fill="white"/>
<path d="M23.3683 30.7366C23.39 30.7366 23.4112 30.7362 23.4328 30.7362C23.3896 30.3911 23.3671 30.0397 23.3671 29.6832C23.3671 29.3268 23.3895 28.9756 23.4328 28.6308C23.4112 28.6308 23.3899 28.6316 23.3683 28.6316C20.9586 28.6316 18.6767 28.1541 16.9428 27.2872C16.6014 27.1165 16.2871 26.9331 16 26.739V27.5788C16.0001 29.0694 19.1511 30.7366 23.3683 30.7366Z" fill="white"/>
<path d="M23.3683 26.5261C23.5772 26.5261 23.7833 26.5219 23.9867 26.5139C24.3135 25.7121 24.7601 24.9716 25.3046 24.3149C24.6742 24.3844 24.0263 24.4212 23.3683 24.4212C20.9586 24.4212 18.6767 23.9437 16.9428 23.0768C16.6014 22.906 16.2871 22.7227 16 22.5286V23.3684C16.0001 24.859 19.1511 26.5261 23.3683 26.5261Z" fill="white"/>
<path d="M26.5266 26.1938C26.0711 26.8786 25.7457 27.6569 25.5856 28.4932C25.5117 28.8787 25.4727 29.2765 25.4727 29.6832C25.4727 29.989 25.495 30.2897 25.5372 30.584C25.6408 31.307 25.8673 31.9906 26.1948 32.6133C26.5384 33.2668 26.993 33.8532 27.5337 34.347C28.6572 35.3732 30.1515 35.9999 31.7894 35.9999C35.2725 35.9999 38.1061 33.1662 38.1061 29.6832C38.1061 26.2001 35.2725 23.3665 31.7894 23.3665C31.4294 23.3665 31.0764 23.3972 30.7327 23.4553C28.9817 23.7514 27.4735 24.7705 26.5266 26.1938Z" fill="white"/>
</svg>
