<svg width="29" height="29" viewBox="0 0 29 29" fill="none" xmlns="http://www.w3.org/2000/svg">
<circle cx="14.5" cy="14.5" r="14.5" fill="#0047FF" fill-opacity="0.05"/>
<path fill-rule="evenodd" clip-rule="evenodd" d="M11.367 7H17.2337C19.396 7 20.6 8.246 20.6 10.381V17.612C20.6 19.782 19.396 21 17.2337 21H11.367C9.239 21 8 19.782 8 17.612V10.381C8 8.246 9.239 7 11.367 7ZM11.5549 10.2619V10.2549H13.6472C13.9489 10.2549 14.1939 10.4999 14.1939 10.8002C14.1939 11.1089 13.9489 11.3539 13.6472 11.3539H11.5549C11.2531 11.3539 11.0089 11.1089 11.0089 10.8079C11.0089 10.5069 11.2531 10.2619 11.5549 10.2619ZM11.5549 14.518H17.0428C17.3439 14.518 17.5888 14.273 17.5888 13.972C17.5888 13.671 17.3439 13.4253 17.0428 13.4253H11.5549C11.2531 13.4253 11.0089 13.671 11.0089 13.972C11.0089 14.273 11.2531 14.518 11.5549 14.518ZM11.5553 17.7169H17.0433C17.3226 17.6889 17.5333 17.4502 17.5333 17.1709C17.5333 16.8839 17.3226 16.6459 17.0433 16.6179H11.5553C11.3453 16.5969 11.1423 16.6949 11.0303 16.8769C10.9183 17.0519 10.9183 17.2829 11.0303 17.4649C11.1423 17.6399 11.3453 17.7449 11.5553 17.7169Z" fill="#1649FF"/>
</svg>
