<svg width="52" height="52" viewBox="0 0 52 52" fill="none" xmlns="http://www.w3.org/2000/svg">
<rect width="52" height="52" rx="14.8571" fill="#753918"/>
<path d="M39.5 34.75C39.5 35.0815 39.3683 35.3995 39.1339 35.6339C38.8995 35.8683 38.5815 36 38.25 36H23.25C22.9185 36 22.6005 35.8683 22.3661 35.6339C22.1317 35.3995 22 35.0815 22 34.75C22 32.7609 22.7902 30.8532 24.1967 29.4467C25.6032 28.0402 27.5109 27.25 29.5 27.25H32C33.9891 27.25 35.8968 28.0402 37.3033 29.4467C38.7098 30.8532 39.5 32.7609 39.5 34.75ZM30.75 16C29.7611 16 28.7944 16.2932 27.9722 16.8427C27.1499 17.3921 26.509 18.173 26.1306 19.0866C25.7522 20.0002 25.6531 21.0055 25.8461 21.9755C26.039 22.9454 26.5152 23.8363 27.2145 24.5355C27.9137 25.2348 28.8046 25.711 29.7745 25.9039C30.7445 26.0969 31.7498 25.9978 32.6634 25.6194C33.577 25.241 34.3579 24.6001 34.9073 23.7779C35.4568 22.9556 35.75 21.9889 35.75 21C35.75 19.6739 35.2232 18.4021 34.2855 17.4645C33.3479 16.5268 32.0761 16 30.75 16ZM19.5 16C18.5111 16 17.5444 16.2932 16.7221 16.8427C15.8999 17.3921 15.259 18.173 14.8806 19.0866C14.5022 20.0002 14.4031 21.0055 14.5961 21.9755C14.789 22.9454 15.2652 23.8363 15.9645 24.5355C16.6637 25.2348 17.5546 25.711 18.5245 25.9039C19.4945 26.0969 20.4998 25.9978 21.4134 25.6194C22.327 25.241 23.1079 24.6001 23.6573 23.7779C24.2068 22.9556 24.5 21.9889 24.5 21C24.5 19.6739 23.9732 18.4021 23.0355 17.4645C22.0979 16.5268 20.8261 16 19.5 16ZM19.5 34.75C19.4981 33.437 19.7568 32.1367 20.2611 30.9244C20.7653 29.7121 21.5051 28.6119 22.4375 27.6875C21.6744 27.3994 20.8657 27.2512 20.05 27.25H18.95C17.1078 27.2533 15.3419 27.9866 14.0393 29.2893C12.7366 30.5919 12.0033 32.3578 12 34.2V34.75C12 35.0815 12.1317 35.3995 12.3661 35.6339C12.6005 35.8683 12.9185 36 13.25 36H19.725C19.5795 35.5992 19.5034 35.1764 19.5 34.75Z" fill="white"/>
</svg>
