<svg width="23" height="20" viewBox="0 0 23 20" fill="none" xmlns="http://www.w3.org/2000/svg">
<path d="M7.36827 6.31555C11.5855 6.31555 14.7366 4.64842 14.7366 3.15774C14.7366 1.6672 11.5854 0 7.36827 0C3.15114 0 0 1.6672 0 3.15774C0 4.64842 3.15107 6.31555 7.36827 6.31555Z" fill="white"/>
<path d="M7.36827 18.947C7.9838 18.947 8.57624 18.9113 9.13976 18.8461C8.66475 18.2356 8.27191 17.5581 7.97762 16.8306C7.77542 16.8374 7.57251 16.8421 7.3682 16.8421C4.9585 16.8421 2.67647 16.3646 0.942668 15.4977C0.601284 15.327 0.287131 15.1436 0 14.9495V15.7893C0 17.2798 3.15107 18.947 7.36827 18.947Z" fill="white"/>
<path d="M7.36834 14.7366C7.38996 14.7366 7.41122 14.7362 7.43277 14.7362C7.38961 14.3911 7.36708 14.0397 7.36708 13.6832C7.36708 13.3268 7.38954 12.9756 7.43277 12.6308C7.41122 12.6308 7.38989 12.6316 7.36834 12.6316C4.95864 12.6316 2.67668 12.1541 0.942809 11.2872C0.601354 11.1165 0.287131 10.9331 0 10.739V11.5788C7.0186e-05 13.0694 3.15114 14.7366 7.36834 14.7366Z" fill="white"/>
<path d="M7.36834 10.5261C7.57721 10.5261 7.78328 10.5219 7.98675 10.5139C8.31353 9.71213 8.76013 8.9716 9.30463 8.31487C8.67422 8.38435 8.02633 8.4212 7.36834 8.4212C4.95864 8.4212 2.67668 7.94373 0.942809 7.07679C0.601354 6.90602 0.287131 6.7227 0 6.52856V7.36841C7.0186e-05 8.85902 3.15114 10.5261 7.36834 10.5261Z" fill="white"/>
<path d="M10.5266 10.1938C10.0711 10.8786 9.74568 11.6569 9.58559 12.4932C9.51168 12.8787 9.47266 13.2765 9.47266 13.6832C9.47266 13.989 9.49498 14.2897 9.53716 14.584C9.64082 15.307 9.86731 15.9906 10.1948 16.6133C10.5384 17.2668 10.993 17.8532 11.5337 18.347C12.6572 19.3732 14.1515 19.9999 15.7894 19.9999C19.2725 19.9999 22.1061 17.1662 22.1061 13.6832C22.1061 10.2001 19.2725 7.36646 15.7894 7.36646C15.4294 7.36646 15.0764 7.3972 14.7327 7.45531C12.9817 7.75143 11.4735 8.77046 10.5266 10.1938Z" fill="white"/>
</svg>
