<svg width="1654" height="42" viewBox="0 0 1654 42" fill="none" xmlns="http://www.w3.org/2000/svg">
<path d="M4.58 8.94C4.58 9.53 4.18 9.86 3.5 9.86H2.09V7.98H3.47C4.15 7.98 4.58 8.34 4.58 8.94ZM4.41 6.03C4.41 6.6 4.03 6.9 3.37 6.9H2.09V5.15H3.37C4.03 5.15 4.41 5.47 4.41 6.03ZM6 9.11C6 8.29 5.44 7.56 4.65 7.42C5.33 7.2 5.84 6.67 5.84 5.82C5.84 4.78 5.03 4.02 3.57 4.02H0.69V11H3.7C5.15 11 6 10.22 6 9.11ZM13.1858 4.01V8.81L10.0158 4.01H8.61578V11H10.0158V6.21L13.1858 11H14.5858V4.01H13.1858ZM21.1693 6.19C21.1693 6.82 20.8193 7.23 20.0393 7.23H18.8693V5.18H20.0393C20.8193 5.18 21.1693 5.57 21.1693 6.19ZM17.4693 4.02V11H18.8693V8.28H19.5293L21.0693 11H22.6893L21.0193 8.17C22.1393 7.87 22.6093 7.01 22.6093 6.16C22.6093 4.99 21.7693 4.02 20.0893 4.02H17.4693ZM34.1384 8.98C34.1384 6.52 30.5584 7.3 30.5584 5.9C30.5584 5.33 30.9684 5.06 31.5184 5.08C32.1184 5.09 32.4884 5.45 32.5184 5.91H34.0584C33.9684 4.65 32.9884 3.92 31.5584 3.92C30.1184 3.92 29.0984 4.68 29.0984 5.94C29.0884 8.47 32.6884 7.56 32.6884 9.07C32.6884 9.57 32.2984 9.92 31.6384 9.92C30.9884 9.92 30.6184 9.55 30.5784 8.99H29.0784C29.0984 10.31 30.2184 11.07 31.6684 11.07C33.2584 11.07 34.1384 10.08 34.1384 8.98ZM36.5121 7.5C36.5121 9.59 38.0421 11.06 40.0521 11.06C41.6021 11.06 42.8621 10.24 43.3321 8.8H41.7221C41.3921 9.48 40.7921 9.81 40.0421 9.81C38.8221 9.81 37.9521 8.91 37.9521 7.5C37.9521 6.08 38.8221 5.19 40.0421 5.19C40.7921 5.19 41.3921 5.52 41.7221 6.19H43.3321C42.8621 4.76 41.6021 3.93 40.0521 3.93C38.0421 3.93 36.5121 5.41 36.5121 7.5ZM49.2479 3.93C47.2279 3.93 45.6879 5.41 45.6879 7.5C45.6879 9.59 47.2279 11.06 49.2579 11.06C51.1179 11.06 52.3879 9.76 52.6679 8.34V7.12H48.8879V8.19H51.2879C51.0779 9.18 50.3879 9.8 49.3079 9.8C48.0079 9.8 47.1279 8.92 47.1279 7.5C47.1279 6.11 47.9979 5.22 49.2479 5.22C49.9879 5.22 50.5679 5.53 50.8879 6.12H52.4979C52.0479 4.72 50.8079 3.93 49.2479 3.93ZM60.0837 8.98C60.0837 6.52 56.5037 7.3 56.5037 5.9C56.5037 5.33 56.9137 5.06 57.4637 5.08C58.0637 5.09 58.4337 5.45 58.4637 5.91H60.0037C59.9137 4.65 58.9337 3.92 57.5037 3.92C56.0637 3.92 55.0437 4.68 55.0437 5.94C55.0337 8.47 58.6337 7.56 58.6337 9.07C58.6337 9.57 58.2437 9.92 57.5837 9.92C56.9337 9.92 56.5637 9.55 56.5237 8.99H55.0237C55.0437 10.31 56.1637 11.07 57.6137 11.07C59.2037 11.07 60.0837 10.08 60.0837 8.98ZM69.1202 4.02H66.6802V11H69.1202C71.3502 11 72.8002 9.63 72.8002 7.52C72.8002 5.4 71.3502 4.02 69.1202 4.02ZM68.0802 9.81V5.2H69.0702C70.5402 5.2 71.3702 6.07 71.3702 7.52C71.3702 8.97 70.5402 9.81 69.0702 9.81H68.0802ZM80.0882 11H81.5682L79.0582 4.01H77.4282L74.9182 11H76.3882L76.8482 9.67H79.6282L80.0882 11ZM79.2482 8.55H77.2282L78.2382 5.63L79.2482 8.55ZM83.6364 5.15H85.4964V11H86.8964V5.15H88.7564V4.02H83.6364V5.15ZM96.0179 11H97.4979L94.9879 4.01H93.3579L90.8479 11H92.3179L92.7779 9.67H95.5579L96.0179 11ZM95.1779 8.55H93.1579L94.1679 5.63L95.1779 8.55Z" fill="#88714E"/>
<path d="M1625.45 37.6906H1630.39V36.5306H1627.44C1628.6 35.5506 1630.23 34.2306 1630.23 32.5406C1630.23 31.2706 1629.44 30.3406 1627.87 30.3406C1626.56 30.3406 1625.49 31.1106 1625.44 32.7806H1626.8C1626.81 32.0106 1627.18 31.5306 1627.85 31.5306C1628.54 31.5306 1628.83 31.9706 1628.83 32.6206C1628.83 33.9606 1627.1 35.2506 1625.45 36.6506V37.6906ZM1632.77 34.0506C1632.77 36.1806 1633.41 37.7706 1635.47 37.7706C1637.53 37.7706 1638.17 36.1806 1638.17 34.0506C1638.17 31.9406 1637.53 30.3606 1635.47 30.3606C1633.41 30.3606 1632.77 31.9406 1632.77 34.0506ZM1636.79 34.0506C1636.79 35.3506 1636.65 36.4706 1635.47 36.4706C1634.29 36.4706 1634.15 35.3506 1634.15 34.0506C1634.15 32.8006 1634.29 31.6606 1635.47 31.6606C1636.65 31.6606 1636.79 32.8006 1636.79 34.0506ZM1640.66 37.6906H1645.6V36.5306H1642.65C1643.81 35.5506 1645.44 34.2306 1645.44 32.5406C1645.44 31.2706 1644.65 30.3406 1643.08 30.3406C1641.77 30.3406 1640.7 31.1106 1640.65 32.7806H1642.01C1642.02 32.0106 1642.39 31.5306 1643.06 31.5306C1643.75 31.5306 1644.04 31.9706 1644.04 32.6206C1644.04 33.9606 1642.31 35.2506 1640.66 36.6506V37.6906ZM1647.9 37.6906H1652.84V36.5306H1649.89C1651.05 35.5506 1652.68 34.2306 1652.68 32.5406C1652.68 31.2706 1651.89 30.3406 1650.32 30.3406C1649.01 30.3406 1647.94 31.1106 1647.89 32.7806H1649.25C1649.26 32.0106 1649.63 31.5306 1650.3 31.5306C1650.99 31.5306 1651.28 31.9706 1651.28 32.6206C1651.28 33.9606 1649.55 35.2506 1647.9 36.6506V37.6906Z" fill="#88714E"/>
</svg>
