<svg width="21" height="20" viewBox="0 0 21 20" fill="none" xmlns="http://www.w3.org/2000/svg">
<circle cx="10.0583" cy="5.57957" r="5.57957" fill="white"/>
<path d="M19.7399 10.6608C19.2156 10.1161 18.3305 10.1263 17.7959 10.6609L15.0101 13.4467C14.8982 13.5587 14.8113 13.6927 14.7508 13.8389C14.3714 14.7561 13.4671 15.4031 12.4145 15.4031H8.48263V14.2243H12.4145C13.1591 14.2243 13.7628 13.6206 13.7628 12.876C13.7628 12.3929 13.5085 11.9693 13.1267 11.7313C12.2022 12.1944 11.1598 12.4556 10.0574 12.4556C8.1888 12.4556 6.49222 11.706 5.25163 10.4921C4.45513 10.5777 3.689 10.9282 3.09281 11.5244L0 14.6187L5.38106 19.9998C6.33069 19.0501 7.61866 18.5167 8.96161 18.5167H12.1036C13.1801 18.5167 14.2122 18.0875 14.9714 17.3243L19.7215 12.5488C20.2418 12.0285 20.2479 11.1887 19.7399 10.6608Z" fill="white"/>
</svg>
