<svg width="53" height="52" viewBox="0 0 53 52" fill="none" xmlns="http://www.w3.org/2000/svg">
<rect x="0.399902" width="52" height="52" rx="14.8571" fill="#DBA628"/>
<circle cx="26.0583" cy="21.5796" r="5.57957" fill="white"/>
<path d="M35.7399 26.6608C35.2156 26.1161 34.3305 26.1263 33.7959 26.6609L31.0101 29.4467C30.8982 29.5587 30.8113 29.6927 30.7508 29.8389C30.3714 30.7561 29.4671 31.4031 28.4145 31.4031H24.4826V30.2243H28.4145C29.1591 30.2243 29.7628 29.6206 29.7628 28.876C29.7628 28.3929 29.5085 27.9693 29.1267 27.7313C28.2022 28.1944 27.1598 28.4556 26.0574 28.4556C24.1888 28.4556 22.4922 27.706 21.2516 26.4921C20.4551 26.5777 19.689 26.9282 19.0928 27.5244L16 30.6187L21.3811 35.9998C22.3307 35.0501 23.6187 34.5167 24.9616 34.5167H28.1036C29.1801 34.5167 30.2122 34.0875 30.9714 33.3243L35.7215 28.5488C36.2418 28.0285 36.2479 27.1887 35.7399 26.6608Z" fill="white"/>
</svg>
