<svg width="52" height="52" viewBox="0 0 52 52" fill="none" xmlns="http://www.w3.org/2000/svg">
<rect width="52" height="52" rx="14.8571" fill="#DBA628"/>
<path d="M36.8635 24.7424C36.8753 24.5741 36.8824 24.4059 36.8824 24.2353C36.8824 19.6941 33.187 16 28.6471 16C25.3694 16 22.4176 17.9541 21.1129 20.9235C20.6918 20.7788 20.26 20.7059 19.8235 20.7059C17.7212 20.7059 15.9812 22.2894 15.74 24.3729C13.0059 24.9106 11 27.2976 11 30.1176C11 33.3612 13.6388 36 16.8824 36H34.5294C37.7718 36 40.4118 33.3612 40.4118 30.1176C40.4118 27.7741 39.0035 25.6683 36.8635 24.7424Z" fill="white"/>
</svg>
