<svg width="53" height="52" viewBox="0 0 53 52" fill="none" xmlns="http://www.w3.org/2000/svg">
<rect x="0.800049" width="52" height="52" rx="14.8571" fill="#DBA628"/>
<path d="M35.5 34.75C35.5 35.0815 35.3683 35.3995 35.1339 35.6339C34.8995 35.8683 34.5815 36 34.25 36H19.25C18.9185 36 18.6005 35.8683 18.3661 35.6339C18.1317 35.3995 18 35.0815 18 34.75C18 32.7609 18.7902 30.8532 20.1967 29.4467C21.6032 28.0402 23.5109 27.25 25.5 27.25H28C29.9891 27.25 31.8968 28.0402 33.3033 29.4467C34.7098 30.8532 35.5 32.7609 35.5 34.75ZM26.75 16C25.7611 16 24.7944 16.2932 23.9721 16.8427C23.1499 17.3921 22.509 18.173 22.1306 19.0866C21.7522 20.0002 21.6531 21.0055 21.8461 21.9755C22.039 22.9454 22.5152 23.8363 23.2145 24.5355C23.9137 25.2348 24.8046 25.711 25.7745 25.9039C26.7445 26.0969 27.7498 25.9978 28.6634 25.6194C29.577 25.241 30.3579 24.6001 30.9073 23.7779C31.4568 22.9556 31.75 21.9889 31.75 21C31.75 19.6739 31.2232 18.4021 30.2855 17.4645C29.3479 16.5268 28.0761 16 26.75 16Z" fill="white"/>
</svg>
