<svg width="20" height="18" viewBox="0 0 20 18" fill="none" xmlns="http://www.w3.org/2000/svg">
<path fill-rule="evenodd" clip-rule="evenodd" d="M12.4773 1.44209L19.746 14.0572C19.906 14.4338 19.976 14.7399 19.996 15.058C20.036 15.8012 19.776 16.5236 19.2661 17.0795C18.7562 17.6334 18.0663 17.9604 17.3164 18H2.6789C2.36896 17.9812 2.05901 17.9108 1.76906 17.8018C0.319302 17.2172 -0.380581 15.5723 0.20932 14.1464L7.52809 1.43317C7.77804 0.986278 8.15798 0.600818 8.6279 0.353094C9.98767 -0.40098 11.7174 0.0944694 12.4773 1.44209ZM10.8679 9.75566C10.8679 10.2313 10.4779 10.6286 9.99802 10.6286C9.5181 10.6286 9.11816 10.2313 9.11816 9.75566V6.95241C9.11816 6.47579 9.5181 6.09033 9.99802 6.09033C10.4779 6.09033 10.8679 6.47579 10.8679 6.95241V9.75566ZM9.99802 14.0174C9.5181 14.0174 9.11816 13.6201 9.11816 13.1454C9.11816 12.6688 9.5181 12.2725 9.99802 12.2725C10.4779 12.2725 10.8679 12.6599 10.8679 13.1345C10.8679 13.6201 10.4779 14.0174 9.99802 14.0174Z" fill="#EF1320"/>
</svg>
